<svg xmlns="http://www.w3.org/2000/svg" xmlns:xlink="http://www.w3.org/1999/xlink" width="387" height="83" viewBox="0 0 387 83"><defs><filter id="a" x="0" y="0" width="387" height="83" filterUnits="userSpaceOnUse"><feOffset dy="1" input="SourceAlpha"/><feGaussianBlur stdDeviation="2" result="b"/><feFlood flood-opacity="0.161"/><feComposite operator="in" in2="b"/><feComposite in="SourceGraphic"/></filter><linearGradient id="c" x1="0.227" y1="1.067" x2="0.726" y2="0.186" gradientUnits="objectBoundingBox"><stop offset="0" stop-color="#473a92"/><stop offset="0.187" stop-color="#6f3d7e"/><stop offset="0.458" stop-color="#a34164"/><stop offset="0.694" stop-color="#ca4451"/><stop offset="0.882" stop-color="#e14646"/><stop offset="1" stop-color="#ea4742"/></linearGradient><linearGradient id="d" x1="-2.432" y1="8.783" x2="0.235" y2="1.252" gradientUnits="objectBoundingBox"><stop offset="0" stop-color="#473a92"/><stop offset="1" stop-color="#ea4742"/></linearGradient><linearGradient id="e" x1="-1.533" y1="6.256" x2="1.334" y2="-1.849" xlink:href="#d"/><linearGradient id="f" x1="-3.521" y1="11.638" x2="0.031" y2="1.799" xlink:href="#d"/><linearGradient id="g" x1="-3.57" y1="11.662" x2="0.245" y2="1.215" xlink:href="#d"/><linearGradient id="h" x1="-5.579" y1="17.457" x2="-1.121" y2="5.02" xlink:href="#d"/><linearGradient id="i" x1="-1.055" y1="4.897" x2="3.388" y2="-7.651" xlink:href="#d"/><linearGradient id="j" x1="-6.218" y1="19.495" x2="-1.627" y2="6.51" xlink:href="#d"/><linearGradient id="k" x1="-2.2" y1="8.093" x2="3.58" y2="-8.19" xlink:href="#d"/><linearGradient id="l" x1="-3.352" y1="11.811" x2="1.702" y2="-2.988" xlink:href="#d"/><linearGradient id="m" x1="-6.405" y1="19.932" x2="0.731" y2="-0.133" xlink:href="#d"/><linearGradient id="n" x1="-7.011" y1="21.719" x2="0.115" y2="1.568" xlink:href="#d"/><linearGradient id="o" x1="-3.509" y1="10.807" x2="4.437" y2="-9.826" xlink:href="#d"/><linearGradient id="p" x1="-9.819" y1="27.524" x2="-1.759" y2="6.333" xlink:href="#d"/><linearGradient id="q" x1="0.217" y1="1.305" x2="8.366" y2="-17.927" xlink:href="#d"/><linearGradient id="r" x1="-10.444" y1="36.426" x2="-2.155" y2="9.259" xlink:href="#d"/><linearGradient id="s" x1="-25.2" y1="56.919" x2="-8.306" y2="19.867" xlink:href="#d"/></defs><g transform="translate(153 -1413)"><g transform="matrix(1, 0, 0, 1, -153, 1413)" filter="url(#a)"><rect width="375" height="71" transform="translate(6 5)" fill="#fff"/></g><rect width="207" height="30" rx="15" transform="translate(-72 1441)" fill="#e8e8e8"/><text transform="translate(-37 1461)" font-size="12" font-family="Montserrat-SemiBold, Montserrat" font-weight="600"><tspan x="0" y="0">Search</tspan></text><g transform="translate(145.596 1443.204)"><path d="M1.734,7.668H8.269a2.929,2.929,0,0,0,5.679,0h9.8a.734.734,0,0,0,0-1.467h-9.8a2.929,2.929,0,0,0-5.679,0H1.734a.734.734,0,0,0,0,1.467Zm9.375-2.21A1.476,1.476,0,1,1,9.633,6.935,1.478,1.478,0,0,1,11.109,5.459Z" transform="translate(0 0)"/><path d="M23.745,12.2H22.174a2.929,2.929,0,0,0-5.679,0H1.734a.734.734,0,0,0,0,1.467H16.495a2.929,2.929,0,0,0,5.679,0h1.571a.734.734,0,0,0,0-1.467Zm-4.411,2.21a1.476,1.476,0,1,1,1.476-1.476A1.478,1.478,0,0,1,19.334,14.411Z" transform="translate(0 -0.13)"/><path d="M23.745,18.2H9.529a2.929,2.929,0,0,0-5.678,0H1.734a.734.734,0,0,0,0,1.467H3.851a2.929,2.929,0,0,0,5.678,0H23.745a.734.734,0,0,0,0-1.467ZM6.69,20.411a1.476,1.476,0,1,1,1.475-1.476A1.478,1.478,0,0,1,6.69,20.411Z" transform="translate(0 -0.26)"/></g><path d="M11.258,10.254,9.031,8.027a5.036,5.036,0,1,0-1,1l2.227,2.226a.651.651,0,0,0,.5.215.716.716,0,0,0,.717-.717A.664.664,0,0,0,11.258,10.254ZM1.434,5.019A3.585,3.585,0,1,1,5.019,8.6,3.585,3.585,0,0,1,1.434,5.019Z" transform="translate(-54.268 1450.732)"/><g transform="translate(-2448 2220)"><rect width="24" height="3.14" rx="1.57" transform="translate(2321 -757.14)"/><rect width="17" height="3.14" rx="1.57" transform="translate(2321 -765.57)"/><rect width="5" height="3.14" rx="1.57" transform="translate(2339 -765.57)"/><rect width="24" height="3.14" rx="1.57" transform="translate(2321 -774)"/></g><g transform="translate(1057.155 1456.936)"><path d="M-801.89,138.528h3.433c.379,0,.38,0,.38.39,0,1.479,0,2.957.006,4.436,0,.245-.061.345-.317.324s-.493,0-.739,0c-.145,0-.209.06-.2.205.005.085,0,.171,0,.256q0,5.361,0,10.722v.386h-18.2v-.363q0-5.418,0-10.836c0-.367,0-.361-.375-.37-.28-.006-.65.069-.813-.077-.142-.127-.062-.515-.061-.787,0-1.318.016-2.635.01-3.953,0-.249.068-.325.319-.323,1.175.007,2.35-.006,3.525-.011h.339c-.094-.11-.151-.178-.21-.244a3.459,3.459,0,0,1-.55-3.819,3.458,3.458,0,0,1,3.329-1.951,3.457,3.457,0,0,1,3.244,3.436c0,.768.007,1.536,0,2.3,0,.205.052.28.27.282.807.007.8.015.81-.8a18.837,18.837,0,0,1,.064-2.355,3.411,3.411,0,0,1,3.72-2.862,3.458,3.458,0,0,1,3.122,3.577,3.405,3.405,0,0,1-.859,2.148C-801.713,138.318-801.777,138.4-801.89,138.528Zm-14.735,5.167v.34q0,5,0,10.007c0,.266.06.357.343.355q2.828-.019,5.657,0c.286,0,.369-.073.368-.363q-.015-5,0-10.007c0-.269-.068-.357-.347-.355-1.9.012-3.79.006-5.686.007C-816.389,143.678-816.482,143.687-816.625,143.695Zm16.381,10.679V143.7c-.118-.007-.22-.019-.322-.019-1.763,0-3.527.005-5.29-.006-.27,0-.353.071-.352.348q.014,5.02.007,10.039c0,.1.01.2.017.316ZM-814.225,142.8c1.138,0,2.276,0,3.413,0,.192,0,.269-.051.268-.255q-.012-1.436,0-2.872c0-.186-.067-.251-.25-.247-.378.009-.756,0-1.134,0-1.875,0-3.75,0-5.625-.006-.264,0-.338.084-.334.342.013.91.011,1.821,0,2.731,0,.236.072.307.307.305C-816.463,142.79-815.344,142.8-814.225,142.8Zm7.121.929a.64.64,0,0,0-.14-.042c-.645,0-1.289,0-1.934-.007-.2,0-.2.124-.2.265q0,5.091,0,10.182c0,.22.084.274.286.27.54-.01,1.081,0,1.621,0,.367,0,.368,0,.368-.379q0-4.977,0-9.954Zm4.658-.928c1.061,0,2.121-.005,3.182,0,.213,0,.319-.057.314-.279-.008-.321-.014-.642-.015-.963,0-.633,0-1.266,0-1.9,0-.137.008-.262-.2-.259-1.03.014-2.061.019-3.091.022-1.117,0-2.235.006-3.352,0-.231,0-.313.065-.309.3q.019,1.377,0,2.755c0,.245.058.326.315.322C-804.548,142.789-803.5,142.8-802.446,142.8Zm-7.214-5.773h-.01c0-.4.018-.8,0-1.194a2.555,2.555,0,0,0-2.471-2.428,2.569,2.569,0,0,0-2.642,2.344,2.5,2.5,0,0,0,2.133,2.719,24.067,24.067,0,0,0,2.838.045c.052,0,.144-.153.147-.237C-809.652,137.859-809.66,137.442-809.66,137.025Zm4.349,1.5v.023a13.878,13.878,0,0,0,1.557-.08,2.556,2.556,0,0,0,2.076-2.694,2.572,2.572,0,0,0-2.616-2.373,2.532,2.532,0,0,0-2.494,2.367c-.039.841-.006,1.686-.011,2.529,0,.172.068.233.237.23C-806.145,138.521-805.728,138.526-805.311,138.526Zm-1.5,4.269c0-.306,0-.569,0-.832,0-.757,0-1.515,0-2.272,0-.195-.059-.268-.26-.266-.786.008-1.571.006-2.357,0-.182,0-.251.061-.249.248.008.711,0,1.421,0,2.132,0,.265-.014.531,0,.795.005.069.109.186.169.187C-808.614,142.8-807.734,142.794-806.811,142.794Z" transform="translate(-53.86 -144.131)" fill="url(#c)"/><path d="M-661.73,78.2a1.369,1.369,0,0,0-.953-.956,1.505,1.505,0,0,0,.972-.968,1.445,1.445,0,0,0,.956.971A1.482,1.482,0,0,0-661.73,78.2Z" transform="translate(-201.096 -91.109)" fill="url(#d)"/><path d="M-815.9,135.324a2.5,2.5,0,0,0,.544-.318,5.384,5.384,0,0,0,.353-.538,1.256,1.256,0,0,0,.863.889,1.365,1.365,0,0,0-.892.9,1.231,1.231,0,0,0-.9-.856Z" transform="translate(-56.567 -145.989)" fill="url(#e)"/><path d="M-491.84,130.842a1.1,1.1,0,0,0,.7-.707l.749.765a.987.987,0,0,0-.7.708A1.266,1.266,0,0,0-491.84,130.842Z" transform="translate(-362.22 -141.903)" fill="url(#f)"/><path d="M-733.732,64.2a.948.948,0,0,0-.656-.671c.311-.177.621-.325.656-.716l.692.721Z" transform="translate(-133.471 -78.41)" fill="url(#g)"/><path d="M-695.3-5.68l-.575-.591.586-.574.568.588Z" transform="translate(-169.795 -12.716)" fill="url(#h)"/><path d="M-874.753,220.534l-.586.565-.571-.58.586-.575Z" transform="translate(0 -226.603)" fill="url(#i)"/><path d="M-566.7,10.956l-.568.56-.552-.574.568-.542Z" transform="translate(-290.563 -28.98)" fill="url(#j)"/><path d="M-449.107,339.439a.436.436,0,0,1,.444.453.457.457,0,0,1-.468.437.434.434,0,0,1-.421-.446A.419.419,0,0,1-449.107,339.439Z" transform="translate(-402.101 -339.299)" fill="url(#k)"/><path d="M-428.857,261.543l.505-.518.513.522-.523.457Z" transform="translate(-421.62 -265.346)" fill="url(#l)"/><path d="M-460.767,192.313a.338.338,0,0,1,.358.347.331.331,0,0,1-.334.374.351.351,0,0,1-.386-.357A.353.353,0,0,1-460.767,192.313Z" transform="translate(-391.183 -200.544)" fill="url(#m)"/><path d="M-786.706,53.106a.343.343,0,0,1-.346-.353.327.327,0,0,1,.342-.365.343.343,0,0,1,.38.358A.367.367,0,0,1-786.706,53.106Z" transform="translate(-83.803 -68.578)" fill="url(#n)"/><path d="M-818.8,200.258c-.091-.121-.235-.231-.262-.365a.282.282,0,0,1,.3-.337c.213-.01.369.113.342.32-.017.134-.158.253-.244.378Z" transform="translate(-53.609 -207.374)" fill="url(#o)"/><path d="M-572.72,65.208c-.087-.123-.23-.237-.249-.37-.027-.187.119-.314.318-.313s.343.127.313.316c-.021.132-.161.246-.248.368Z" transform="translate(-285.704 -80.026)" fill="url(#p)"/><path d="M-865.743,314.021c.136.2.27.314.283.44a.289.289,0,0,1-.32.314.275.275,0,0,1-.3-.321C-866.06,314.322-865.9,314.216-865.743,314.021Z" transform="translate(-9.262 -315.327)" fill="url(#q)"/><path d="M-492.2,81.261c-.111.074-.229.216-.33.2s-.194-.171-.29-.266c.1-.095.183-.254.288-.266s.22.128.331.2Z" transform="translate(-361.294 -95.499)" fill="url(#r)"/><path d="M-616.86-20.328c.072.1.15.167.146.225s-.089.111-.139.167c-.058-.057-.147-.107-.164-.174C-617.029-20.156-616.937-20.227-616.86-20.328Z" transform="translate(-244.163)" fill="url(#s)"/></g></g></svg>